# WaveFront *.obj file (generated by CINEMA 4D)

mtllib ./Arrow.mtl

v -250 -50 25
v -250 50 25
v -250 -50 -25
v -250 50 -25
v 150 -50 -25
v 150 -150 25
v 150 50 -25
v 150 150 25
v 150 -50 25
v 150 50 25
v 150 150 -25
v 319.61245727539062 0 -25
v 319.61245727539062 0 25
v 150 -150 -25
# 14 vertices

vn 1 0 0
vn 0 0 1
vn 0 0 -1
vn 0 -1 0
vn 0 1 0
vn -0.66248017549515 -0.74907946586609 0
vn -0.66248017549515 0.74907946586609 0
# 7 normals

vt 1 0.5 0
vt 0 0.5 0
vt 0 0 0
vt 1 0 0
vt 0.79999995231628 0 0
vt 0.80000001192093 0 0
vt 0.79999995231628 1 0
vt 0.80000001192093 1 0
vt 0.40000000596046 0.5 0
vt 0.20000000298023 0.5 0
vt 0.20000000298023 0 0
vt 0.40000000596046 0 0
vt 0 0.25 0
vt 1 1 0
vt 1 0.25 0
vt 0.80000001192093 0.5 0
vt 0.60000002384186 0.5 0
vt 0.60000002384186 0 0
vt 0.60000002384186 1 0
# 19 texture coordinates

o Cube
usemtl Material01
f 1/4/1 3/3/1 4/2/1 2/1/1
f 5/6/2 14/5/2 12/4/2
f 10/6/3 8/5/3 13/4/3
f 5/6/1 9/8/1 6/7/1 14/5/1
f 3/12/2 5/11/2 7/10/2 4/9/2
f 5/11/2 12/13/2 7/10/2
f 9/8/3 13/14/3 6/7/3
f 9/6/3 10/16/3 13/15/3
f 9/6/3 1/18/3 2/17/3 10/16/3
f 4/19/4 7/8/4 10/6/4 2/18/4
f 1/19/5 9/8/5 5/6/5 3/18/5
f 11/7/6 12/14/6 13/4/6 8/5/6
f 6/7/7 13/14/7 12/4/7 14/5/7
f 10/6/1 7/8/1 11/7/1 8/5/1
f 7/8/2 12/14/2 11/7/2

