# WaveFront *.obj file (generated by CINEMA 4D)

mtllib ./Arrow.mtl

v -250 -50 25
v -250 50 25
v -250 -50 -25
v -250 50 -25
v 150 -50 -25
v 150 -150 25
v 150 50 -25
v 150 150 25
v 150 -50 25
v 150 50 25
v 150 150 -25
v 319.61245727539062 0 -25
v 319.61245727539062 0 25
v 150 -150 -25
# 14 vertices

vn -1 0 0
vn 0 0 -1
vn 0 0 0
vn 0 0 1
vn 0 1 0
vn 0 -1 0
vn 0.66247034072876 0.74908816814423 0
vn 0.66247034072876 -0.74908816814423 0
# 8 normals

vt 1 0.5 0
vt 1 0 0
vt 0 0 0
vt 0 0.5 0
vt 0.80000001192093 0 0
vt 0.79999995231628 0 0
vt 0.80000001192093 1 0
vt 0.79999995231628 1 0
vt 0.40000000596046 0.5 0
vt 0.40000000596046 0 0
vt 0.20000000298023 0 0
vt 0.20000000298023 0.5 0
vt 0 0.25 0
vt 1 1 0
vt 1 0.25 0
vt 0.80000001192093 0.5 0
vt 0.60000002384186 0 0
vt 0.60000002384186 0.5 0
vt 0.60000002384186 1 0
# 19 texture coordinates

o Cube
usemtl Material01
f 4/4/1 3/3/1 1/2/1 2/1/1
f 14/6/2 5/5/2 12/2/2
f 8/6/4 10/5/4 13/2/4
f 6/8/1 9/7/1 5/5/1 14/6/1
f 7/12/2 5/11/2 3/10/2 4/9/2
f 12/13/2 5/11/2 7/12/2
f 13/14/4 9/7/4 6/8/4
f 10/16/4 9/5/4 13/15/4
f 2/18/4 1/17/4 9/5/4 10/16/4
f 10/5/5 7/7/5 4/19/5 2/17/5
f 5/5/6 9/7/6 1/19/6 3/17/6
f 13/2/7 12/14/7 11/8/7 8/6/7
f 12/2/8 13/14/8 6/8/8 14/6/8
f 11/8/1 7/7/1 10/5/1 8/6/1
f 12/14/2 7/7/2 11/8/2

