{"accessors" : [{"bufferView" : 0, "byteOffset" : 0, "componentType" : 5123, "count" : 11904, "type" : "SCALAR", "max" : [11903], "min" : [0]}, {"bufferView" : 1, "byteOffset" : 0, "componentType" : 5126, "count" : 11904, "type" : "VEC3", "max" : [546.664794921875, -357.85687255859375, 61.630069732666016], "min" : [455.56219482421875, -370.1681213378906, 44.0792121887207], "name" : "POSITION"}, {"bufferView" : 1, "byteOffset" : 12, "componentType" : 5126, "count" : 11904, "type" : "VEC3", "max" : [0.9997009634971619, 1.0000044107437134, 0.999998927116394], "min" : [-0.999910295009613, -1.0000044107437134, -0.9999992847442627], "name" : "NORMAL"}, {"bufferView" : 1, "byteOffset" : 24, "componentType" : 5126, "count" : 11904, "type" : "VEC2", "max" : [1, -0], "min" : [0, -1], "name" : "TEXCOORD_0"}, {"bufferView" : 0, "byteOffset" : 23808, "componentType" : 5123, "count" : 3672, "type" : "SCALAR", "max" : [3671], "min" : [0]}, {"bufferView" : 2, "byteOffset" : 0, "componentType" : 5126, "count" : 3672, "type" : "VEC3", "max" : [599.0556030273438, -65.29724884033203, 82.30667877197266], "min" : [414.6233215332031, -266.2855529785156, -97.5503158569336], "name" : "POSITION"}, {"bufferView" : 2, "byteOffset" : 12, "componentType" : 5126, "count" : 3672, "type" : "VEC3", "max" : [0.9910869598388672, 0.9995189309120178, 0.9935964941978455], "min" : [-0.9983067512512207, -0.9997361302375793, -0.9967761635780334], "name" : "NORMAL"}, {"bufferView" : 2, "byteOffset" : 24, "componentType" : 5126, "count" : 3672, "type" : "VEC2", "max" : [1, -0], "min" : [0, -1], "name" : "TEXCOORD_0"}, {"bufferView" : 0, "byteOffset" : 31152, "componentType" : 5123, "count" : 2688, "type" : "SCALAR", "max" : [2687], "min" : [0]}, {"bufferView" : 3, "byteOffset" : 0, "componentType" : 5126, "count" : 2688, "type" : "VEC3", "max" : [552.1130981445312, -152.9952392578125, 85.15635681152344], "min" : [462.5423583984375, -160.58477783203125, 69.55428314208984], "name" : "POSITION"}, {"bufferView" : 3, "byteOffset" : 12, "componentType" : 5126, "count" : 2688, "type" : "VEC3", "max" : [0.9738209247589111, 0.9998959898948669, 0.9897382259368896], "min" : [-0.9897204041481018, -0.9999417662620544, -0.9855403304100037], "name" : "NORMAL"}, {"bufferView" : 3, "byteOffset" : 24, "componentType" : 5126, "count" : 2688, "type" : "VEC2", "max" : [1, -0], "min" : [0, -1], "name" : "TEXCOORD_0"}, {"bufferView" : 0, "byteOffset" : 36528, "componentType" : 5123, "count" : 2160, "type" : "SCALAR", "max" : [2159], "min" : [0]}, {"bufferView" : 4, "byteOffset" : 0, "componentType" : 5126, "count" : 2160, "type" : "VEC3", "max" : [542.450439453125, -171.72882080078125, 83.0382080078125], "min" : [472.8641052246094, -177.94961547851562, 73.2195816040039], "name" : "POSITION"}, {"bufferView" : 4, "byteOffset" : 12, "componentType" : 5126, "count" : 2160, "type" : "VEC3", "max" : [0.998390793800354, 1.0000042915344238, 0.998390793800354], "min" : [-0.998390793800354, -1.0000042915344238, -0.998390793800354], "name" : "NORMAL"}, {"bufferView" : 4, "byteOffset" : 24, "componentType" : 5126, "count" : 2160, "type" : "VEC2", "max" : [1, -0], "min" : [0, -1], "name" : "TEXCOORD_0"}, {"bufferView" : 0, "byteOffset" : 40848, "componentType" : 5123, "count" : 11580, "type" : "SCALAR", "max" : [11579], "min" : [0]}, {"bufferView" : 5, "byteOffset" : 0, "componentType" : 5126, "count" : 11580, "type" : "VEC3", "max" : [613.4808959960938, -70.67757415771484, 96.24402618408203], "min" : [392.1171569824219, -548.6380004882812, -94.9487533569336], "name" : "POSITION"}, {"bufferView" : 5, "byteOffset" : 12, "componentType" : 5126, "count" : 11580, "type" : "VEC3", "max" : [0.9967761635780334, 1.0000042915344238, 0.9999990463256836], "min" : [-0.9967761635780334, -1.0000044107437134, -0.9967761635780334], "name" : "NORMAL"}, {"bufferView" : 5, "byteOffset" : 24, "componentType" : 5126, "count" : 11580, "type" : "VEC2", "max" : [1, -0], "min" : [0, -1], "name" : "TEXCOORD_0"}, {"bufferView" : 0, "byteOffset" : 64008, "componentType" : 5123, "count" : 3432, "type" : "SCALAR", "max" : [3431], "min" : [0]}, {"bufferView" : 6, "byteOffset" : 0, "componentType" : 5126, "count" : 3432, "type" : "VEC3", "max" : [566.6419067382812, -545.5399780273438, 42.758052825927734], "min" : [440.3187255859375, -568.0399780273438, -47.8235969543457], "name" : "POSITION"}, {"bufferView" : 6, "byteOffset" : 12, "componentType" : 5126, "count" : 3432, "type" : "VEC3", "max" : [0.9959741830825806, 1.0000042915344238, 0.9932690858840942], "min" : [-0.9968246221542358, -1.0000044107437134, -0.9982346296310425], "name" : "NORMAL"}, {"bufferView" : 6, "byteOffset" : 24, "componentType" : 5126, "count" : 3432, "type" : "VEC2", "max" : [1, -0], "min" : [-3491.0625, -1], "name" : "TEXCOORD_0"}, {"bufferView" : 0, "byteOffset" : 70872, "componentType" : 5123, "count" : 972, "type" : "SCALAR", "max" : [971], "min" : [0]}, {"bufferView" : 7, "byteOffset" : 0, "componentType" : 5126, "count" : 972, "type" : "VEC3", "max" : [564.46875, -391.0051574707031, 56.26726531982422], "min" : [441.4552917480469, -470.6777038574219, -66.7461929321289], "name" : "POSITION"}, {"bufferView" : 7, "byteOffset" : 12, "componentType" : 5126, "count" : 972, "type" : "VEC3", "max" : [0.9967761635780334, 0, 0.9967761635780334], "min" : [-0.9967761635780334, -1.0000042915344238, -0.9967761635780334], "name" : "NORMAL"}, {"bufferView" : 7, "byteOffset" : 24, "componentType" : 5126, "count" : 972, "type" : "VEC2", "max" : [1, -0], "min" : [0, -0.5234804749488831], "name" : "TEXCOORD_0"}, {"bufferView" : 0, "byteOffset" : 72816, "componentType" : 5123, "count" : 8766, "type" : "SCALAR", "max" : [8765], "min" : [0]}, {"bufferView" : 8, "byteOffset" : 0, "componentType" : 5126, "count" : 8766, "type" : "VEC3", "max" : [867.6583862304688, 307.16900634765625, 60.31410598754883], "min" : [225.08029174804688, -391.0051574707031, -70.79303741455078], "name" : "POSITION"}, {"bufferView" : 8, "byteOffset" : 12, "componentType" : 5126, "count" : 8766, "type" : "VEC3", "max" : [1.0000044107437134, 1.0000044107437134, 1.0000044107437134], "min" : [-1.0000044107437134, -1.0000044107437134, -1.0000044107437134], "name" : "NORMAL"}, {"bufferView" : 8, "byteOffset" : 24, "componentType" : 5126, "count" : 8766, "type" : "VEC2", "max" : [1, -0], "min" : [0, -1], "name" : "TEXCOORD_0"}], "asset" : {"generator" : "Aspose.3D 21.5.2", "version" : "2.0"}, "buffers" : [{"uri" : "data:application/octet-stream;base64,", "byteLength" : 1535952}], "bufferViews" : [{"buffer" : 0, "byteOffset" : 0, "byteLength" : 90348, "target" : 34963}, {"buffer" : 0, "byteOffset" : 90352, "byteLength" : 380928, "byteStride" : 32, "target" : 34962}, {"buffer" : 0, "byteOffset" : 471284, "byteLength" : 117504, "byteStride" : 32, "target" : 34962}, {"buffer" : 0, "byteOffset" : 588792, "byteLength" : 86016, "byteStride" : 32, "target" : 34962}, {"buffer" : 0, "byteOffset" : 674812, "byteLength" : 69120, "byteStride" : 32, "target" : 34962}, {"buffer" : 0, "byteOffset" : 743936, "byteLength" : 370560, "byteStride" : 32, "target" : 34962}, {"buffer" : 0, "byteOffset" : 1114500, "byteLength" : 109824, "byteStride" : 32, "target" : 34962}, {"buffer" : 0, "byteOffset" : 1224328, "byteLength" : 31104, "byteStride" : 32, "target" : 34962}, {"buffer" : 0, "byteOffset" : 1255436, "byteLength" : 280512, "byteStride" : 32, "target" : 34962}], "materials" : [{"pbrMetallicRoughness" : {"baseColorFactor" : [1, 1, 1, 1], "metallicFactor" : 0, "roughnessFactor" : 0}, "emissiveFactor" : [0, 0, 0], "alphaMode" : "OPAQUE", "doubleSided" : false}, {"pbrMetallicRoughness" : {"baseColorFactor" : [0.27000001072883606, 0.25137001276016235, 0.22139999270439148, 1], "metallicFactor" : 0, "roughnessFactor" : 0}, "emissiveFactor" : [0, 0, 0], "alphaMode" : "OPAQUE", "doubleSided" : false}, {"pbrMetallicRoughness" : {"baseColorFactor" : [0.11999999731779099, 0.08640000224113464, 0.019200000911951065, 1], "metallicFactor" : 0, "roughnessFactor" : 0}, "emissiveFactor" : [0, 0, 0], "alphaMode" : "OPAQUE", "doubleSided" : false}, {"pbrMetallicRoughness" : {"baseColorFactor" : [0.029999999329447746, 0.029999999329447746, 0.029999999329447746, 1], "metallicFactor" : 0, "roughnessFactor" : 0}, "emissiveFactor" : [0, 0, 0], "alphaMode" : "OPAQUE", "doubleSided" : false}, {"pbrMetallicRoughness" : {"baseColorFactor" : [0.800000011920929, 0.6600000262260437, 0.6320000290870667, 1], "metallicFactor" : 0, "roughnessFactor" : 0}, "emissiveFactor" : [0, 0, 0], "alphaMode" : "OPAQUE", "doubleSided" : false}, {"pbrMetallicRoughness" : {"baseColorFactor" : [0.4000000059604645, 0.32073333859443665, 0.23600000143051147, 1], "metallicFactor" : 0, "roughnessFactor" : 0}, "emissiveFactor" : [0, 0, 0], "alphaMode" : "OPAQUE", "doubleSided" : false}, {"pbrMetallicRoughness" : {"baseColorFactor" : [0.34310001134872437, 0.415010005235672, 0.4699999988079071, 1], "metallicFactor" : 0, "roughnessFactor" : 0}, "emissiveFactor" : [0, 0, 0], "alphaMode" : "OPAQUE", "doubleSided" : false}, {"pbrMetallicRoughness" : {"baseColorFactor" : [0, 0.6039215922355652, 0.7803921699523926, 1], "metallicFactor" : 0, "roughnessFactor" : 0}, "emissiveFactor" : [0, 0, 0], "alphaMode" : "OPAQUE", "doubleSided" : false}], "meshes" : [{"primitives" : [{"attributes" : {"POSITION" : 1, "NORMAL" : 2, "TEXCOORD_0" : 3}, "indices" : 0, "material" : 0, "mode" : 4}, {"attributes" : {"POSITION" : 5, "NORMAL" : 6, "TEXCOORD_0" : 7}, "indices" : 4, "material" : 1, "mode" : 4}, {"attributes" : {"POSITION" : 9, "NORMAL" : 10, "TEXCOORD_0" : 11}, "indices" : 8, "material" : 2, "mode" : 4}, {"attributes" : {"POSITION" : 13, "NORMAL" : 14, "TEXCOORD_0" : 15}, "indices" : 12, "material" : 3, "mode" : 4}, {"attributes" : {"POSITION" : 17, "NORMAL" : 18, "TEXCOORD_0" : 19}, "indices" : 16, "material" : 4, "mode" : 4}, {"attributes" : {"POSITION" : 21, "NORMAL" : 22, "TEXCOORD_0" : 23}, "indices" : 20, "material" : 5, "mode" : 4}, {"attributes" : {"POSITION" : 25, "NORMAL" : 26, "TEXCOORD_0" : 27}, "indices" : 24, "material" : 6, "mode" : 4}, {"attributes" : {"POSITION" : 29, "NORMAL" : 30, "TEXCOORD_0" : 31}, "indices" : 28, "material" : 7, "mode" : 4}]}], "nodes" : [{"mesh" : 0, "name" : "FOllow_me_1"}], "scene" : 0, "scenes" : [{"nodes" : [0]}]}